<mxfile host="" modified="2021-12-17T06:26:38.086Z" agent="5.0 (Windows NT 10.0; Win64; x64) AppleWebKit/537.36 (KHTML, like Gecko) Code/1.44.2 Chrome/78.0.3904.130 Electron/7.1.11 Safari/537.36" etag="ZwkNtKKaAynrVLqh5Ino" version="13.1.3">
    <diagram id="ZRgNgkGBJunc0q0rqTIc" name="Page-1">
        <mxGraphModel dx="940" dy="660" grid="1" gridSize="10" guides="1" tooltips="1" connect="1" arrows="1" fold="1" page="0" pageScale="1" pageWidth="1654" pageHeight="2336" math="0" shadow="0">
            <root>
                <mxCell id="0"/>
                <mxCell id="1" parent="0"/>
                <mxCell id="2" value="" style="rounded=0;whiteSpace=wrap;html=1;" parent="1" vertex="1">
                    <mxGeometry x="330" y="120" width="260" height="480" as="geometry"/>
                </mxCell>
                <mxCell id="3" value="ECStack(调用栈)" style="text;html=1;align=center;verticalAlign=middle;resizable=0;points=[];autosize=1;strokeColor=none;" parent="1" vertex="1">
                    <mxGeometry x="270" y="70" width="110" height="20" as="geometry"/>
                </mxCell>
                <mxCell id="4" value="" style="rounded=0;whiteSpace=wrap;html=1;" parent="1" vertex="1">
                    <mxGeometry x="375" y="450" width="190" height="120" as="geometry"/>
                </mxCell>
                <mxCell id="5" value="GEC(global exection context)" style="text;html=1;align=center;verticalAlign=middle;resizable=0;points=[];autosize=1;strokeColor=none;" parent="1" vertex="1">
                    <mxGeometry x="375" y="420" width="170" height="20" as="geometry"/>
                </mxCell>
                <mxCell id="27" style="edgeStyle=orthogonalEdgeStyle;rounded=0;orthogonalLoop=1;jettySize=auto;html=1;" edge="1" parent="1" source="8">
                    <mxGeometry relative="1" as="geometry">
                        <mxPoint x="790" y="210" as="targetPoint"/>
                        <Array as="points">
                            <mxPoint x="760" y="480"/>
                            <mxPoint x="760" y="210"/>
                        </Array>
                    </mxGeometry>
                </mxCell>
                <mxCell id="8" value="VO(variable Object): GO" style="rounded=0;whiteSpace=wrap;html=1;align=left;" parent="1" vertex="1">
                    <mxGeometry x="385" y="450" width="170" height="60" as="geometry"/>
                </mxCell>
                <mxCell id="9" value="开始执行代码&lt;br&gt;foo()" style="rounded=0;whiteSpace=wrap;html=1;align=left;" parent="1" vertex="1">
                    <mxGeometry x="385" y="510" width="170" height="60" as="geometry"/>
                </mxCell>
                <mxCell id="10" value="{&lt;br&gt;name: undefined&lt;br&gt;foo: 0xa00&lt;br&gt;}" style="rounded=1;whiteSpace=wrap;html=1;align=left;" parent="1" vertex="1">
                    <mxGeometry x="800" y="170" width="120" height="60" as="geometry"/>
                </mxCell>
                <mxCell id="11" value="GlobalObject" style="text;html=1;align=center;verticalAlign=middle;resizable=0;points=[];autosize=1;strokeColor=none;" parent="1" vertex="1">
                    <mxGeometry x="820" y="140" width="80" height="20" as="geometry"/>
                </mxCell>
                <mxCell id="12" value="[[scope]]: parent scope&lt;br&gt;函数的执行体(代码块)" style="rounded=1;whiteSpace=wrap;html=1;align=left;" parent="1" vertex="1">
                    <mxGeometry x="800" y="340" width="130" height="70" as="geometry"/>
                </mxCell>
                <mxCell id="13" value="存储函数空间(foo) 0xa00" style="text;html=1;align=center;verticalAlign=middle;resizable=0;points=[];autosize=1;strokeColor=none;" parent="1" vertex="1">
                    <mxGeometry x="785" y="310" width="150" height="20" as="geometry"/>
                </mxCell>
                <mxCell id="14" value="" style="endArrow=classic;html=1;" parent="1" source="10" edge="1">
                    <mxGeometry width="50" height="50" relative="1" as="geometry">
                        <mxPoint x="940" y="200" as="sourcePoint"/>
                        <mxPoint x="860" y="339" as="targetPoint"/>
                    </mxGeometry>
                </mxCell>
                <mxCell id="15" value="" style="rounded=0;whiteSpace=wrap;html=1;" parent="1" vertex="1">
                    <mxGeometry x="370" y="240" width="190" height="140" as="geometry"/>
                </mxCell>
                <mxCell id="16" value="函数执行上下文(FEC)&lt;br&gt;Functional Execution Context" style="text;html=1;align=center;verticalAlign=middle;resizable=0;points=[];autosize=1;strokeColor=none;" parent="1" vertex="1">
                    <mxGeometry x="365" y="200" width="170" height="30" as="geometry"/>
                </mxCell>
                <mxCell id="28" style="edgeStyle=orthogonalEdgeStyle;rounded=0;orthogonalLoop=1;jettySize=auto;html=1;" edge="1" parent="1" source="17">
                    <mxGeometry relative="1" as="geometry">
                        <mxPoint x="620" y="200" as="targetPoint"/>
                        <Array as="points">
                            <mxPoint x="600" y="270"/>
                            <mxPoint x="600" y="200"/>
                        </Array>
                    </mxGeometry>
                </mxCell>
                <mxCell id="17" value="VO(variable Object): AO&lt;br&gt;scope chain: AO + GO&lt;br&gt;this绑定的值" style="rounded=0;whiteSpace=wrap;html=1;align=left;" parent="1" vertex="1">
                    <mxGeometry x="375" y="240" width="180" height="60" as="geometry"/>
                </mxCell>
                <mxCell id="18" value="{&lt;br&gt;num: undefined&lt;br&gt;m: undefined&lt;br&gt;n: undefined&lt;br&gt;}" style="rounded=1;whiteSpace=wrap;html=1;align=left;" parent="1" vertex="1">
                    <mxGeometry x="620" y="170" width="120" height="90" as="geometry"/>
                </mxCell>
                <mxCell id="19" value="AO(Activation Object)" style="text;html=1;align=center;verticalAlign=middle;resizable=0;points=[];autosize=1;strokeColor=none;" parent="1" vertex="1">
                    <mxGeometry x="600" y="140" width="130" height="20" as="geometry"/>
                </mxCell>
                <mxCell id="20" value="开始执行函数代码&lt;br&gt;console.log(name)" style="rounded=0;whiteSpace=wrap;html=1;align=left;" parent="1" vertex="1">
                    <mxGeometry x="375" y="300" width="170" height="60" as="geometry"/>
                </mxCell>
                <mxCell id="21" value="当我们查找一个变量时,真实的查找路径是沿着作用域链来查找" style="text;html=1;align=center;verticalAlign=middle;resizable=0;points=[];autosize=1;strokeColor=none;" parent="1" vertex="1">
                    <mxGeometry x="610" y="40" width="340" height="20" as="geometry"/>
                </mxCell>
                <mxCell id="23" value="&lt;img src=&quot;data:image/png;base64,iVBORw0KGgoAAAANSUhEUgAAAQQAAAFFCAYAAAAKDJPDAAAgAElEQVR4Ae2dfWwU573vv72qVDXAmvjw4nBEsPESTkxK6qCFmB5yzGILjIBgbHBDQqWDbIeYkKYtAvlawbLRCsGlTYoDJbaVSk0hARychsgvsllbocUhq8QJN5AS1jaI22Awx9hr3Ch/9Wredmdnd+3d9ex6Z/eLhHbmmeft9/l5vvM8z8z85gePPvrov6DDv/nz56O3t1eHmlgFCZDAZBH4X5PVMNslARKIPQIUhNjzCXtEApNGgIIwaejZMAnEHoEf6LWGEHumsUckQAKhEuAIIVRizE8CcUyAghDHzqVpJBAqAQpCqMSYnwTimAAFIY6dS9NIIFQCFIRQicV6/sUr8MFvtuKE1QRgLn73m634oHBuSL1+xroOH/xmBf47pFJ+Ms9ehBPu9k14rWQrPihZhGf8ZGVSbBCgIMSGH/TrxZ1BjOpX28RquuPCnYnVwNJRJkBBiDJwNkcCsUzgh7HcOfYtDALKVfmeSyx83wWMDg6HUZEeRYbhad+F/3cfWAIXPtajatYREQL6PZj01FE8vS4d/R+twY3PPX390ZoGZC69g6vVOyH9iQKmF1qQMd+TZ+TTg7jS0iEnlCB1XwHw0RrcniWUnSql976PT/5c5yk0zlaK7TJKM75CbdsslBaa5dwuOA4sRnObp7CYL0uYb8v/nKdQXbpX3BGPzWzGORRhvVCF85TXtpIPOIht9iKkKXXAiXPWHHS792NlQ1hTeBL3//wR9mvH8sLaQy7wl99eQI91HX6dOYy/tAHP5irrDy585i4n1LMC829ewMaGWx7jhDWDF54Euj/C83bF257D3Ip9AvpNGT5vQN8QkJJRorJ6JaY/NhUjnza4xUAQiOSra/BJtfz/ox5MW7oXqU+pigFIWdeCzBmtUr56B0bmF/jk8S7hZy9pOUpz76LWmopqayrOOU2wlJ1EipK1rB1bUCMeE45XH7iIIXMRXrGpbDAXYcWADdUNTsBchPU4JW8vQaZYjyQGD3fZ3PXUds3Cenu7fFxpbOzf4jeb0NTk7/8ZVFnHLhv8UeGKbcLDs31LPDMjCXANosd9aC6eXTaI3/32JDb+9iT+ctOEJSsUcbiFD7pdwLxUr4XHZxalYYrrS7xFMXBTNNqGjlOGDtz5ayHS1v0UwvVWvD7MsWLG9Ae4d1m5+gPftxTihprS51+gf126OkXaVo8IvrXj3pAFM2atBOCpy7eQNsWJc/lb0S8n3x5wATNVeY7l4IhqF20duF62HAvUaXDiQkUdUFYkDBFwThg9lLW7c6TY8pA2fBG1Qh75X39FM/rsRXiiDOg+pqSO/Vv/8lrUj51Ft6OzZ0ge+u/CrXgWqqv8fWk4L90FuIW/1F1xD+97Bl1Aukm8QyAM+T+2f4mNmSvwk8UALgtdM+G/0k3oveQpo1uHWVHUCOgoCADEk7sAc9esFKcAJqsF03rfx5VvVfbM2Y9FxRZMUyUJm8pJqySP3HMqm6II3DnSEYEVa+1QX2pySNVyUJvCSMTuJXNisb6gCkczkzyPT04CkISfPOzCqEm4yt8Ckk0hrjVIo4RfL1uEZy5fwceLn8QS0y38RRSHaNrEtvQkoK8goA63P12NzMes+FGLGcnzgf6PPFdOoASpxRbg04P4RLtmoKdVQdVVgrzGIqSp1gyE/uU1VmhGCEFUJowQVCORIEr4ZBGmDJtU6yqeDKNwHN6MSrsnZSJb4pU+GcDiVMzu+Rjtyevwk8Um3H8YuPNNaPP+j6/04cXMNPzX7CtIf2wuRrs/wh8n0jmWnXQCOguCMCVoRf/S1Zi+JhkpQw50qxYY/VlreqFAnNNrRwj+8kY6LcW2C5YkIJQRQn/nVxjKWo4tthIcUU0bQu1rtKYMH98bxq/TTXjtsST8/YILf8SXOLFiLu7DhfvahcbxjLhzBe03n8SzG9bhP0y30N4QmqCMVz2PR5+A7oIA1GGwtwAZS6ei/6Od+N7LJnkEsXQvnl4qreSPfPo++pIL8GOvfNHYqUNzWxEshUXYZxfWB+S7CM4irAil+batOIKTeKW8AvvsFaqSMXqnQXhwyfQklty/gI2iANzC3x9eJw33QxUEAH+88CVyxDsLH3N0oPK+UTf1u+1oVALs98QIiLca0/B39y3JiVXH0pNLQL/bjpNrB1ufFAJz8Tt5dODzXMOk9IeNTpRABKYME+0Sy8c8AfkBpCmAuJDIh5Bi3mNBd5BThqBRMSMJxD8BThni38e0kASCJkBBCBoVM5JA/BOgIMS/j2khCQRNgIIQNCpmJIH4J0BBiH8f00ISCJoABSFoVMxIAvFPgIIQ/z6mhSQQNAEKQtComJEE4p8ABSH+fUwLSSBoAhSEoFExIwnEPwEKQvz7mBaSQNAEKAhBo2JGEoh/AhSE+PcxLSSBoAlQEIJGxYwkEP8EKAjx72NaSAJBE6AgBI2KGUkg/glQEOLfx7SQBIImQEEIGhUzkkD8E6AgxL+PaSEJBE2AghA0KmYkgfgnQEGIfx/TQhIImgAFIWhUzEgC8U+AghD/PqaFJBA0AQpC0KiYkQTinwAFIf59TAtJIGgCFISgUTEjCcQ/AQpC/PuYFpJA0AQoCEGjYkYSiH8CcSIIxahpOoMq6yQ5rKQGTe9VIXuSmmezJKAXgYgJwo7aw7DbPf/fKtOry9p6slH13iak97ai0q49FqX9uvfhgAV73iyOUoNshgQiQyAin4NfZatERdYgTltrcDwy/XbXWvxmEzbNcODQzyvR6U5VbWQ/h4OvZsLk6sYbv3gX11SHADO2/6kUFpOSOALHG/vxtqqivNcPYUOaclz4vYkPNx5FszpJ3BZGKZuQcukQNlepKvDJxwQSiF0CP9S/a2bkZEzDg64TERcDWKuwej7Q0+hPDOSTHd1w9AGWf/O1NO/1Ulj+pxUv/eK8eHBhxWt49dWduN3pOeGbf7XH6+QXBeJPz6HXR1zq8f6l1dizrADF6ES9b3NMIYGYJxCxKUM0LC/eZMEUlwPv1/m2trDiOSy8VouXfvEubvseFlOEk/2lX0liICRc+5sTLszDE9sDFADQ/H9vAqZkzPeTpbOqFT1Ix+pKrib4wcMkAxDQb4RQtgv2wnkek7N2wK7M6Ye7Ycs/AenUM+NA4w4sS/JkfdB1HBsqnJ6E3OfxYXkmprpTRnDpQBXK29wJALIxdwYw+nWH36nCNdt+7FVn12XbjO3Z84C+Vq9Rg6fqenzZuwnpM82A3155cnKLBGKRgH6CcKwG1mOCidIJv+iq5iQXrZfFYKAF1vx2iYd48u/AhzY5vywGtxt240WxPkBckyivxAGoRcGMZBPQ/61+8/WFPzPDhJvofNvbVV7rCMJahGpU4Z0TcA6MAo/PFe846NczbSvcJ4HIEIjulKEsD8uSRnDpjCwGgk1tJ/D7rhFMzViGVQB2bM7E1OFunJbFQMhyvuIELg1Pw6Js4cor/7PORYqyrcfv9p141TINLofv1V+cWmzcg5c27sEb18x49YPXsH2sWYEpGaqe6tE71kECUSEQXUEQTRrETa+hv2xnUjIWKCYP3JGnF0qC9Dt1ZqonwX4L/Z69iW1t34k/bJgHl6MWe22qqYufWq/Z3oXDNQ3CaCLgP9cgxq4lYEkeIIFJJTAJghDA3uFBXA9wSEl+MHBD2QTgxKALSJkz1qValT3QZghiIFUxD/9mAu7d9n/Km2dOAe7d4gpCIN5Mj2kC0RWEY1/jOuZhS22OB0ru8/hl1jRcb5MWHY9/cRMwr4H6QaZVtuexLOkmmtQLj+jErXvAlMdXhv+EYMhiAOS9vhrzcRNfadYZJIOK8aRwG/RL3nT0OJhbRiKg36JiUFa340Ur8JZ9Dez2Ne4S11ULiBAWJyHcsTgMe6GS5abfh5zqzzqwercFBSVAp/bWo3yyKzUAmXj1g0wAysNH8h0DACZLKf7wgSen5+Ej7YNLEO8wvLTRc6tSXQolTyIdPTir7YtXJu6QQOwSiMiTitE0d9wnFaPWGT6pGDXUbChiBKI7ZYiAGfUvH4qB9wiU9ynO8rHlCPiYVUaPgOEFQXgAqPLnZ9Ezf/Ukvu1YAAscOPQy1w6i96fLliJBwPBThkhAYZ0kkKgE4mCEkKiuo90koD8BCoL+TFkjCRiWAAXBsK5jx0lAfwIUBP2ZskYSMCwBCoJhXceOk4D+BCgI+jNljSRgWAIUBMO6Tq+OT3LEakx2+3pxjI96IvYug+mFFmSo4oz1f7QGNz6PTWg/WtOAzKVTMfLpQVxp6Zj8TmqjTzlbYC1VxZDQrYeeJyx3KdGtdKs72IrkWJS7a1Bs3zXxWJRCSPz8dLHxnsa12MX3SoJ1hJgvIoIgnGAZ83twtXonXCF1R+/MJUjdVwDEsBj5WCxEjCqcB68Xvnwy6ZNQ/OaemHjCsrNqM8xC9Oz3quAMFD07KJOLUZOfDgpBULD8ZorAlGElpj8mXG0bJlkM/NrrN/H7lkJ8Ur0mJkYHq7LNPhGj/HZ6oolKxOrz/iJWT7Ty0MsLb66OmqQ3V0MvLZcQo2j14EuOCsJGGAFBCLsvLBhFAmNFrI5iNzxN2SvR2gukr+IXsDxQor+l35ThqaN4ep00dxPNWLoXTy+V4x4POdB95DV8D2kIP8Vrrq4Z1ov1AFfrBzG32IJpMhN/axDK3N+NTWlnzn4sUpXFuhakrJNzKXmEXU2f/bUBrMTsV/Yibbq7Fe+1hhD666lBu5Ujxohwh5BDJirsmagQs3lHnBa+iLVFHb3NZ30hiKjW40Ssnv7zw8iZewvtl03IeVqJXPkdehp3o/uy1Hcxz8JhfFa1H32yOe5y/+f3GFr9GgoXu/DZrblYsvDHwD+/8dpuF/JoMNR/2YNN+VI8Sgao1cCJ0q5+gvD5TnwiLhpKJ9CMbyayQJeOjGLgavUacdohnvjrjmLwc8+ahLRo+QB99Wtw51sNrW9fw5VqIU0jNppscPdZzqc9rojB4Pv45Ig8DhXFZi8WAaopxvj99anaK0EIHCMtGooRpjOcqrD1noyiGMzshs2qhLSXhMReC3nRMYio1mJ1QUSsfugx5Cz+Bu1V+8UTN+3Fo1iy+pfou+x7Int6qNl66DEsSbqIhsYZyMt/DEvmfoP2RiArfy7SFsMtLu5SPYMYRQbmCt/oDGORM3tFBqa4rjKepRto6BsxOmUQTnTPyf/93Tvels3Zj7nzgf6PCn3FwDvnxPaeKkTa9Afos6smpd++BuenDzDtMSt+5K59nP66801gI/d5rDXDHWpOqqkdLzYIIecexw4hIYio1mK5oCJW9+Mz1VX8/vB3YXT+O/R0nZDLfYee1mDEZAqSVQPNYBrNrjyDpqYm7MRRrJ3QomQwrcV3nhgVhGCgP8B3uoVdHqu9O/hOOwIRsk9PVgnCWOX1PDaCQb+RaJMxL1dpJ4io1npGrFaa1e13FIM9oVUm3KVYu3YtjmInv8IdGjqf3AYWBB9bopswNIjvo9viGK0FEAF1Ca+o1jpFrFbXr8d2ejKmoB+3wpguCM13XriKUX4TY0KeiLIgOPHdEDBthrIqJs3dlWWroC351o57Q1ORVnwU7g83+y0stZeSUeL36LiJn3+BfqQj4wVV+Tn7YV46Ff1/FRZJo/iv7RKuDE/DsrLnxQ/aSC3n4K3CeXjQ1Sx9WDeIqNZSuYlHrB66PwwgCdMXSzVKi4w/nhCQ4ifTgd4vJ/5w0oR6kdiF9VtUDIpjB+40WDGjuABPCw8MQVgHOIi+/9yL0P6UOnDnSAe+E56G3NfiaVl9B0FM9W0PqjzapynddyN638cnfxbWDepwQ1ic3Ofpr9TnyXjq0ony/OPidzE9dyAA7+9iBhHVWqY1ZsRqD9HAW6378VnqUSzJP4r0fIh3Edo/MSFHFojABQMdkUPYNzIMXSBC0UhnCLVoUI7RNmInYjWgS1+sVTizOxmta3V4BDpGfRbpbkV5yhBpc1h/KARiI2I1INwl2DS/B2cneodAXCxNx+rKCX7NKxSIcZaXghBnDg3NnBiIWI1iFCwDHIf1uKrXY9dhB7Bsj3gbska19BMal8TNzSlD4vqelpOADwGOEHyQMIEEEpcABSFxfU/LScCHgG6CMH++KhqKTzNMIAESMAIB3QTBCMayjyRAAmMToCCMzYdHSSChCFAQEsrdNJYExiZAQRibD48KBIQnAJtqUBwyDSGIaxP4PEDI4CatQJTfZZg0OyPYcAnyGitgSZKbGL6I2vytiMib2ZpozNEIxAohTPpuC3DpUBgvHXWi8nwBmvLPoKpnMyrDfIsxgs5j1RoCHCFogIS+W4fm/FRUW1NR2xXhGNPHamC17obV2gK/YRFC7/w4JTxh2jdXhRnUrG4XDl0CLEKY9XFa4+HJJ0BBmHwfxG4PSgpgMY3CcXZibyB2VrWiB3zHIHYd7ekZBcHDglteBLJRtUqIT9Cqw1Bf+BjLKKYsK+AowYtx7O3E7BpCiu0ySrNU4U+0c/Pck3ilfDk8wZBdcBxYjOY2CbJYPuMr1LbNQmmhEpDFO4+Q06cdOHHOmoNut680awQAhrpsOFKhirPozjvWxkFssxchzZ1F2477wAQ3goi6LHwMpjwTU7UteUVwlgKx9pz3NzoQbMnDvYavsKBQ8IELDvW2yg9KE0I0o53Lwg+gqtTD38gSiElByKy9gfVm4eRNdZ/gXhhkMbjfkIojx6Qj4oldLsQI94gCkpajNPciaq054iKfWG/ZSXS3yYt+Ze0ozbqLc9bFKgFQtySLwcApVOfLIeXFtivwig0hiIIkBg932VAtC4nYX3s74CU+6rbD2Q4m6nIO3irPBLqOw1rhBKAqo/5cnBiIdRRXA8Y3NMFSOAvnrDakCIuqhU/AccAGlFVgQXYJmts0gim8mrzbIgVQ5eJiOM6NSpnYmzLknsQKM9DXoDqxNSgyNy/H9OGLaJPFQDjcX1EDx7BJ/GP0ZHfinGrF//aAv0U/M54o85Tw2iorgiXJBccZWQyEg21bcbrLhekZKxFs6LcUWx7Shi/itGpU0V/RjD6M0bZXR4LcCSbqcu5sPIIRXOkUxED450T71RFg5mxVaDYAYnxDOUuAn6GuU24hHeqq8S/emrIpcxirQIMkpnZjcoQAuHBvvGX0gVt+b+1Nn6lMD4LgfCwH1WjHvsIb2Fco5e9rSMU7KqEB7qJfnoZ41Zg0C48IQuSVOMaOMFqx3/DJoHzkxOdA2AkBAq4mJUP4EMz5tju4XZ6JRdlmoE0aIeRkTAMG7uC8uk3xGwnBSp664Njb/d+Gebdi7Gp5VCcCMSoI4Vs3NKBc+YKsQxAFRQDKJHHYBq0o+Klr+C5u+0kOmKRdAwmYMUIHvKIuA1OzdsCuDN291g7k9vUe4o87BYmQ3aw2JAKxN2Vo68D1YRMs5e3IDGBK9xdOwFyEbaqhfoptFyxJTlxQDcsDFA+cfOwz92fJxEzivhnraw96yuSexJYsE/qUdQjPkYBb/Z1fYShpObbYxg/ho3x0pOm9ML5xGETU5VW2n2HBsPD1J+F5Bvm/eu3AbYUUqj39SX2eHlC+qtShiJC7HW7EEoEYHCEID/rUoV9YWLTfwHqFlvoK62eoL8yFve8OKAUD//reYZDvICgjBuzFO1aIdwf22YvcFXlNK3zudihTA9UdjbatOALhrkgF9tmlLzZKlYXWZ5/vOhYehl2Y6riv8ONHXT5fcQI5jTtU345UzLqJ09YaKZy7mKQ8ZbgaVdb6Cd56zMbKx6dg9OsOcMKg8I7NX91CqAnxEHp7e2PTSvbKTcD9fch85fuQwqEAdxogPKm4B5Z7Z7H2ZX+3H93VjrkhjHr2LOvHWUZDHpNTLByMvSlDLFBJtD7kLsOiJODBgHbRUwnCuglnwo1kXFKDPboFUU00x0TfXo4Qos98klvUfnpe6s6YL0qF/b0DaYSRfH4tdmkeS5hkCGw+AAEKQgAwTCaBRCTAKUMiep02k0AAAhSEAGCYTAKJSICCkIhep80kEIAABSEAGCaTQCISoCAkotdpMwkEIEBBCACGySSQiAQoCInoddpMAgEIUBACgGEyCSQigRh8uSkR3RCazQsrXsOrlmlwOWqx1+b7unfe64ewwR2rbQSON/bjbb5VFBrkBM3NEYKRHJ/9HA5+cAjb4USg18gkMbiJDzfuwUsb9+ANB2B59TVsZ6AiI3l60vpKQZg09KE2bMb27WZce2MP9tru+i+c/Ryy04DeD4+iWc5xzfYuHK5psDy7yn8ZppKAikCMTRlWYvYre5EGB7qPvIbv3R0tQeq+Akz59CCutHTIqVKaJ8jXA/TVF+LOt/LhOfuxqPhx3KsvxHfWFmTIX6sf8arD3YDfDTFewsxmnEMR1guR2ZynvLarS1WxFv3WoGeiE2//Yv/YFc5Phgk30fm2J9vCiudgEYNXz8JCANc8h7hFAj4EYkwQOnDnr4VIW/c4ps+B5+R+6qdIQQ+uusVAEI6fYrB6DZQXdk0vtCCj+Ci+q94JTyjVqUgrboEgAp/8uQN46iieXrcTsy93eOr2QaJJMBdhhRAt+Ysi7CsswnrnKVQ3LMG+wiViRCdPuHZNOdWuFA9giirFs9nTqN+bgAsfSQZcynTCjO1/KoUF3fjQYcYGSzIETaQgeNhzy5dAjAkCgM8b0PefezFj8Urc+VYaDZgyhA+GvK860Ttw54gyUpCMcgnxwuVRgNpMrxHB51+gf10BfiwMK5SRhDqz3205LFuZEDHJiXPCqKCs3W/OQImdVZujGylo+078YcM89H64By+9DQiLkPxHAsEQiD1BQAeGvtmJtKWFMLV0wDVnP+bOF6YD3i/U/2hNAzKXaj814vsRgdG7auGow41q73qCgWSUPNduDwKWTLya3Y03Nh71Hg24BgMuRBrFPvYz8gRiUBCA71ta0b+0AMlPAd/PehzThr6GU31Ff+ooMpcCffVrPEN/cToQeWDhtBCtKQN6B+HCPNzrfFclBmb8bOE0uK45VGnhWMEyiUAgJgUBqMPtT1cjM2M/vkueiv6/qhcY/bmlBKnr0gH4jhD85Y52WtSmDJ3vovPZTGzYsBN5b0t3GqRFxZv40M/zCtHmwPZin0CMCgLw/eWvMVJsQdqQA92fa0DK6wzCgqH0/M0D9H3kwMi6ZE3G+Nr1fuAIgKUUf/gAgKsbb/xCGhU0/2oPIDyY9MEhbBDNF55J8NyGjC8itEZvAgyhpjdR1kcCBibAB5MM7Dx2nQT0JkBB0Jso6yMBAxOgIBjYeew6CehNgIKgN1HWRwIGJkBBMLDz2HUS0JsABUFvoqyPBAxMgIJgYOex6ySgNwEKgt5EWR8JGJgABcHAzmPXSUBvAhQEvYmyPhIwMAEKgoGdx66TgN4EYvblJr0NjY/65ChIYkg0wSL/EZW9X4Lynyc+eNAKvQlwhKA30QjWl/d6KSz/0ypGU/ZEVN6JPFWbjLqsgsHNkAlQEEJGNnkFhFebX/rVeXcHrv3NKQZEeWK7nMSoy2423AiPQIxNGWIr6jLwPJ6pXA58chYjizch/SEZcv9FNLx1IjzikSzFqMuRpJsQdceYIMRg1GUAs57eBHyyEw2tABb/Enn5y/HM6hP4WNgP4l+kQqgt/JnZK+w6oy4H4QxmGZNAjAlCLEZdBkavnfWc/JfvYTT/sTGhag9GJITa9p3y59zedX+Uxd0uoy67UXAjNAKxJwiMujy+B+UTXvttR0ZdHh8dc4xNIAYFgVGXx3RZADEQyzDq8pjoeHB8AjEpCIy6HMBxY4mBUIRRlwOAY3KwBGJUEBh12deBZmzPnicmm5Roy+5MnsjKjLrshsKNMAgw6nIY0FiEBOKVAB9MilfP0i4SCIMABSEMaCxCAvFKgIIQr56lXSQQBgEKQhjQWIQE4pUABSFePUu7SCAMAhSEMKCxCAnEKwEKQrx6lnaRQBgEKAhhQGMREohXAhSEePUs7SKBMAhQEMKAxiIkEK8EKAjx6lnaRQJhEKAghAGNRUggXglQEOLVs7SLBMIgQEEIAxqLkEC8EqAgxKtnaRcJhEGAghAGNBYhgXglQEGIV8/SLhIIgwAFIQxoLEIC8UqAghCvnqVdJBAGAQpCGNBYhATilQAFIV49S7tIIAwCFIQwoLEICcQrAQpCvHqWdpFAGAQoCGFAYxESiFcCFIR49SztIoEwCFAQwoDGIiQQrwQoCPHqWdpFAmEQoCCEAY1FSCBeCVAQ4tWztIsEwiBAQQgDGouQQLwSoCDEq2dpFwmEQYCCEAa0hCtircKZphoUx7Dh2ZVn0PRmLPcwhuGpuvZD1TY3wyJQgrzGCliS5MLDF1GbvxX9YdU1TqGyXbAXznNnut6wGy8ec+9GaKMYNbstwKVDqI9QC3pU21nVioKmTThT6cTmqk49qkzIOjhCmLDb69Ccn4pqaypqu1wTrm3MCo7VwGrdDau1BdfHzKjXwWxUvbcJ6b1nDXCS1WPXYQewbA9qSvSyP/HqoSAkns+Dt7ikABbTKBxnY3lsoDLHXonWXiB9VRWyVcncDJ4ABSF4VgmWMxtVq9KB3lZU2o1jev1ZB0ZNFhRwlBCW02J2DSHFdhmlWSaPUdq5ee5JvFK+HNPdOVxwHFiM5jYpQSyf8RVq22ahtNAs5/LOIyT6tAMnzllz0O2uV7NGAGCoy4YjFXXuHMFtHMQ2exHS3Jm17bgPTHDDjAONO7BMWdMA8KDrODZUOD315j6PD8szMdWTIm05W2AtbZdTzUg2AT3n/Y8OwubrPIXq0r1iG2IdM5txDkVYL7jIecprW8kHhMDO3oGrpRZkzBHGCFxL0Lp4vP2YHCFk1t5AaRbgOCDNzYX5ebV6oU4Wg/sNnuO1XYCl/DLyclUmJy1Hae5d1Arlrak45zTBUnYSKUqWsnaUZt3FOfm42I4/MRg4JZYXjx+4CGRV4BVbKJcg6Q/64S6bu57arllYb29HptIXXZ/zC0YAAA/OSURBVH5lMRhokdcadsN6oBvI2oEPbYoo5uCt8kyg67ic5zguDQsno1oMAFjnIgWjGOwZo2NB8N2CGrfN1QcuYshc5M3OXIQVAzZUNzgBcxHW45S8vURmEyq7Tty6B0yZqdg7Rv95yIdA7AlC7kmsMAN9DZ6rvbbXmZuXY/rwRbSpVtj7K2rgGDZhQbb6RHXinEpIbg/4W/Qz44kybQvyflkRLEkuOM5IVzQxtW0rTne5MD1jpUdYAhRXklNseUgbvojTqlFFf0Uz+jBG20rhUH7L8rAsaQSXzihXeQBtJ/D7rhFMzViGVUJdubPxCEZwpVMZMTjRfnUEmDlbOq60l56MKcp2wN9x+B7L8R5JtXXguiA+Xv+cuODm4sQ5efSgZAmb3Yy5XEdQIIbwG6NTBhfujbeMPnDL76296aFcGY7loBrt2Fd4A/sKJWp9Dal4RyU0wF30y9MQL65Js/AI4LcPXvmUHeFqar+h7Ll/+9xbem0M4qbf/iZjAYDzbXdwuzwTi7LNQJsgCmbkZEwDBu7gvLoLPYMYDVry1AXV29qhvnRsSJ0lmO1w2N27xQlDMGw1eWJUEDS9DGF3aEC58gVZSBAFRQDKJHHYBq0o+Klr+C5u+0kOmKRdAwmYMUIHhge9blVOzdoBu7JYqJ0uCF2w30L/bguS04XtcPokrL0UIU21ZgBI6zGCMIX0LyR22Zg7Axj9OsS/g5A6FL+ZY2/KIA4rTbCUB55fd38hzTe3qYb6KbZdsCSph59hOO3YZ/C6Yov7ZqyvPeipLPcktmSZ0NcW/MNH/Z1fYShpObYEse4gPnHX1ISm98K4dXbsa1zHPGypzVH193n8MmsarredEEcAq2w/w4LhbtjE5xmEZxp2qxYSPcUAJwZdQPqT+j39J/lI3cb426GwE2uzrkSGaRRXL3BBcXy6vjlicIQgPOhTh/7aG1hvv4H1Sp/VVwk/Q33hD9j77oBSMPCv7x0G+Q6CMmLAXrxjhXh3YJ+9yF2R17TC526HMjVQ3dFo24ojEO6KVGCfvcJdT6h93lF7GFvUa2WFh2EXpjruK3w7XrQCb9nXwG5f425H/UTj+YoTyGncgQp7JtQ9AW7itLUGx92lOlF5vgBN+atRZa0P49ZjHZrbimApLIKbnXAXwVmEFe42gtgIkV32igxMcV1FR1ijmiD6E+dZfvDoo4/+Sw8b58+fj97eXj2qYh0RJCCKysxu2PKlEYPUlOruhPu2o3BEeFJxDyz3zmLty/5vP0awq6FXLbxzsduC/sa12BXqXeHQW4vLErE3ZYhLzDFuVO4yLEoCHgxoFz07Ufnzs+iZL7wjEOvP/nneuaAYhP/3xhFC+OwMWjJHnFJoF/bU0wofw8QrbzJa1+6K2RechLWXPTNbjTGS8QEcOwkUhNjxBXtCApNOgFOGSXcBO0ACsUOAghA7vmBPSGDSCeg2ZZh0S9gBEiCBCRPgCGHCCFkBCcQPAQpC/PiSlpDAhAlQECaMkBWQQPwQoCDEjy9pCQlMmIC+7zLIj44K79GPXjpkgMCcE+bHCkggrghE5i5DSQ2a8lPgOLw5jJdi4oovjSEBQxGIzJSh7n04XFOkd+kNhYOdJYHEJhAZQUhsprSeBAxLgIJgWNex4ySgP4EICYIU+VbPaDv6m84aSYAEtAQiJAhA/ctrsfbLJ9HU1GSAd+m1WLhPAolJQN/bjiqGxW82YRPOYu3aXapUbpIACcQygQiNEKTItz1fGiDsVix7h30jgSgTiJAgRNkKNkcCJKALAQqCLhhZCQnEBwEKQnz4kVaQgC4EIiMIJQWwmMb5UKgu3WclJEACehLQ9y6D6uWmnsa1fI9BT0+xLhKIAoHIvNwUhY6zCRIgAf0JRGbKoH8/WSMJkEAUCFAQogCZTZCAUQhQEIziKfaTBKJAgIIQBchsggSMQoCCYBRPsZ8kEAUCFIQoQGYTJGAUAhQEo3iK/SSBKBCgIEQBMpsgAaMQoCAYxVPsJwlEgQAFIQqQ2QQJGIUABcEonmI/SSAKBCgIUYDMJkjAKAQoCEbxFPtJAlEgQEGIAmQ2QQJGIUBBMIqn2E8SiAIBCkIUILMJEjAKAQqCUTzFfpJAFAhQEKIAmU2QgFEIUBCM4in2kwSiQICCEAXIbIIEjEKAgmAUT7GfJBAFAhSEKEBmEyRgFAIUBKN4iv0kgSgQoCBEATKbIAGjENDty01v/P510eb/XV5hFNvZTxIgAQ0BjhA0QLhLAolMQLcRggLxn//8p7LJXxIgAYMR4AjBYA5jd0kgkgQoCJGky7pJwGAEKAgGcxi7SwKRJEBBiCRd1k0CBiNAQTCYw9hdEogkAQpCJOmybhIwGAEKgsEcxu6SQCQJUBAiSZd1k4DBCFAQDOYwdpcEIkmAghBJuqybBAxGgIJgMIexuyQQSQIUhEjSZd0kYDACFASDOYzdJYFIEqAgRJIu6yYBgxGgIBjMYewuCUSSAAUhknRZNwkYjAAFwWAOY3dJIJIEdI+Y9NBDD0Wyv6ybBEggggQ4QoggXFZNAkYj8INHH330X0brNPtLAiQQGQIcIUSGK2slAUMSoCAY0m3sNAlEhgAFITJcWSsJGJIABcGQbgu+08VvNuFMZXbwBeI4Z3blGTS9WRzHFk7cNN1vO068S1Gsoawd+wrN7gb7GlLxzjH3ro4bZhxo3IFlSXKVw92w5Z/AeR1b8FeVcAJsmt+Dsy93+juccGmdVa0oaNqEM5VObK4iE39/AIk9QjiWg2prKqqtp9Dnj45uaU6U5++G1bobtq4R3Wods6KSGuxZBjgO70L9mBkT6WA9dh12AMv2oKYkkewO3tbEFoTgORksZzaqVqUDva2otBus65Hurr0Srb1A+qoqcCLlC5uC4MvE+CklBbCYRuE4y7GBP2fWn3Vg1GRBAUcJPngisIZwENvsRUhTNeU9Ny9BXmMFLMp8GsBQlw1HKuqkEuK8Hjh34C5WlC/HdLke7zqERN92vOoRsmjWCAAnzllz0C3XGexPZu0NrPcsNcC3L8HWNE6+sl2wF85TZbqJ09YaHFel7Kg9jC2qvkiHRnDpQBXK26S97DkpgOsqOgKODrTsXHAcWIxmubxYS+5JvKLi75ddEHlSbJdRmmXyWOA8herSvZ59AFq+Pn708XWY/VVatXfgaqkFGXOEMQLXEhQswq++gqD8gfhxutSoLAYDp1CdL/9RiGUq8IoNHlGAGevLgXPWVPHkFf+oCtuReUw5mYV6ivBwlw3VipCorRK2RTGYBceBVPcfuviHZ28HQhAFsczMi6i1bkW/UK/Y3xvYBp0XIEUxSMalA7vdJ7Z48tt3AbIorLJVYotZJRLuMh4xELponjkFuHcrwJ+6wG4JvrKm4h2ZmWhjeTv62xS+B7GtDDhtTZVshuS39Y0ncTtf5iCcpOPlKWvHFtSg2iqLvciuCK/YnG5fC7594otUVJfKnRH9VoFtZXXyAq9e/ZXrF386ceveHlhmCspKQVCT0XXKkLl5OaYPX0St5grgbrCsCJYkFxxnVFeItq043eXC9IyVSHFnFK4Ayh8n0P+Pu+4j6g3vMuojJcjLNQPOZrcYCEe7S4XFQzOeKFPnHWM79yRWmF1wHFNOAgBtW3HBCaT99OAYBUM9ZMaB3HmA829uMRBqOF7aguuYh0y5vwtmTgOcX3tGDMe+xnVMQ/ICdXvZmDtDva/drkNzvoetcLT7C6cm01684z7xhUN16L7qCj3PsRz3iS8WbuvA9WHvavorFnvf2Tn2mWaBV6/+ercr7s2Yy3UEDRZ9RwhC5QO35KuKpiX37l30q4emSnrSLDwCjFNWySz8kQBorECp/YaUKAiR1x8xMDSg/UOXsj7878LkUb5qKVUG/DXBUn4DlnJNBv9VazKFtvtgQLZFU+yRfxeuZE5cHxgBsh7HDrRLolD2OBZgBJeuqwvIVz91kmbbZxgvHvc2SDuMF7NoTubx82inJlJHhtT9UUaV6jTASxT06q+miTFGUT45EyZBf0EIF93wXdwOqawgCnVoFstIQ9rSxpM+ouCvyvv/CFYMhNJ+5qv+Ko1g2u1/qE/WedhiP4wtYnveawdKF5wDo8Dj0tXPZ0Bc1o7SLHhNpaTplVIaEE7A9Wbv9RbxpMwIJY/gkyKkeU0fJT95BjQHsa18OeA19ZNExN2STv111yduSKOo0a/VXL1zJOqerlMGcehpFuaIAZZvxeGgGetrVcPt3JPYkmVCX5tqWB6yN7RDWml/etYu5OV6KsusLULa8EW0BfvwkTjENcFSdlI1nfHU57VVUoOmpiY0NdUg9GfhnGi/OoKpWc/jgKq/O2rXYMFwN06L/c3BlqxpuN4gPc8gPNNgtXqvHSj96fy2HzBlYKVVSRnr9yC2qR7O8ptT9pHfY0piEHlSbLu8FpOVoupf0UfqBJ9tHfprXYkM0yiuXvCRS5/WEi1B/9ef/QwBvVflfYeRXsfdi4GqVW8xTVhkVOa+vnX4WwX3GWpqphV+h7zCX4Cfq5r6roiQxavPQoIgCPnpAHpwdq3mYaDc5/FheSam+vx1eV/hhUXDiqxpnlzaJxp97kJIWR90HceGCvXVLhtV7+2B5d5ZrH1Ze+tRukp77HHB0fAVFhTOwoWAfJ041wCsz72rGoFpfeAnj+g31S0R5ymcQxFWDHjuKml9NNR1CtczijCjTVm01au/HqzCE5x7Hr+KQz+v5JKiB4u4pb8gaBrgrk4EZFG53bAbL6pHOAHuNEgClQLH4c18OEntAmsVzuy2oL9xLXaFMnNU1xHH27pOGeKYU8yatuOnwnMLg7ipXait24VDlwDL7nCmMDFr7gQ7Voya3Rbg0iGKQQCSHCEEABOLyT5TCqGT2mmFpuPC246rBw7xZR4A4lRhZqufaZQGWgLvUhAS2Pk0nQS0BDhl0BLhPgkkMAEKQgI7n6aTgJYABUFLhPskkMAEKAgJ7HyaTgJaAhQELRHuk0ACE6AgJLDzaToJaAlQELREuE8CCUyAgpDAzqfpJKAlQEHQEuE+CSQwAQpCAjufppOAlgAFQUuE+ySQwAQoCAnsfJpOAloCFAQtEe6TQAIToCAksPNpOgloCVAQtES4TwIJTICCkMDOp+kkoCVAQdAS4T4JJDABCkICO5+mk4CWAAVBS4T7JJDABCgICex8mk4CWgIUBC0R7pNAAhOgICSw82k6CWgJUBC0RLhPAglMgIKQwM6n6SSgJUBB0BLhPgkkMAEKQgI7n6aTgJYABUFLhPskkMAEKAgJ7HyaTgJaAhQELRHuk0ACE6AgJLDzaToJaAlQELREuE8CCUyAgpDAzqfpJKAlQEHQEuE+CSQwAQpCAjufppOAlgAFQUuE+ySQwAQoCAnsfJpOAloCFAQtEe6TQAIT+P8JNMht3OrIEAAAAABJRU5ErkJggg==&quot; width=&quot;260&quot; height=&quot;325&quot;&gt;" style="text;html=1;align=center;verticalAlign=middle;resizable=0;points=[];autosize=1;" parent="1" vertex="1">
                    <mxGeometry x="62" y="100" width="280" height="330" as="geometry"/>
                </mxCell>
                <mxCell id="25" value="" style="shape=image;verticalLabelPosition=bottom;labelBackgroundColor=#ffffff;verticalAlign=top;aspect=fixed;imageAspect=0;image=data:image/png,iVBORw0KGgoAAAANSUhEUgAAAOwAAADxCAYAAADIm1tRAAAgAElEQVR4Ae2de3BUVb7vP+fWqZqagXQwJyAjg7xahYSDJ1LN+xFDkMcER0g0MzhO1aECQRgdZ4aColJCBSpF6XVmHBg4Biin6swQRwngSAxgQgiIgKYkyiUYNCEgIsHkxCQN1/Kve2vt7t29+5H07mR3p7v5dRXstdfr91vflW+vR6/93f9y//33/z8S6DN27FiuXLmSQC2SpggCXgT+JdEI622ahASBxEPgfyVek6RFgkDiIiCETdy+lZYlIAJC2ATsVGlS4iIghE3cvpWWJSACQtgE7NSYaNKk2bz9++Xsy7IBI/nj75fzdt7IsFybk5XD27+fzX+GVSpI5nvT2eexb+PFlct5e2U6c4JkjfWof7XUwQk5FM4Z4anSefEAZR+0e+4lcBchcKuDO4RH0Iihc6ubW8DYiBmIXsXWEVYjq42Gg6WcblMNGE9OYS7LEdJGrzvFUqIjYNGUOJVZGSNwXnzPTVYFWyMVp26QNGo8qYmOorQvEAH3qHarvRvo4ttuuNPRFZgvKjFG+9189S0oh05Fxba1RqwbYYP51d6JM2mIRtioTYwf2cm0nHG0Vizk6nmvUz9YWE7GlFtc2rIW9SekPrZfHiXNME9yfvQSDUdPuFNXMnpTLlQs5OYwVXawK/7KAc79fY87T+jL8JILrEq7yO6qYazKs7sLdFO3bRJHqrzltXzT1XrP/Wl6ky2rNmg3WtrQIxwmnyWqiqY3fcJ6PniJZ2ryGaPXQROHs7Kp99xHM3Cd3/2hzG2wm6179LCKUmvah/n27xVsVXNV40etfefDP//wPs16vBanT6+7+dhTTtUzm7HX3ueJ8ut6blBr1l8+DPUVPF2jetvX/l/Ly/irN3dchSwaYdtpvOYkaeI0xnuan8qs+ekkYSN1qCcy8oHz5bR0wvC0lQZbjzLkwcE4Pyr3kFUROOXSQs5tcf+raCZpygZGP2IoBgzPOUpG6jFXvr11OMfmBuTxLRHkLnkGq+Z/w+6s0WzJGs3hJhuONWUM17OuqeYpdmhpKn3LtjN02vN5vsTQBns+s9tK2FLeBPZ8lvCmOzyZDK0eF1nvOVviqWf32WEsqal2p+vGer8W/KWSyspg//ZTnNV7WfOpasSzcc+9gSXmpCZDd4eXrIzkZ1M7+OMfynjiD2X885qNybN18l7n7fpuGDXaZ2NqTvoYBnV/SqlG1kAb8Rxj2Qjb/kEZJ4cUMrewkLkaIk4aLt6AiYZRIypIneDW6TzG5PwHyrI2mt6XReqQ27Rf0EdP+P5oHleN/pz/hNacccYYV9g4on5dQ3ung9RhjwLeugIL+cc0cXjpclrd0TfbusH4JbYrm+3GIlUn+GLNDB4wxtHE+0V7YE2+GmI5rEbfNdWeHMNLFjGm6wy7VR73p7XoCC01+UxcA/W79Njer3t/vZi9vWexLPXeVFcP/Wfecn6GYZR0T1ddu7jX+eeeBs/0tbmjG8bZtB1eNaU9VfMpT2TM5t8nAReUazbmjrNx5UNvGcscjoGKLCOsakvju6U0Ghs1IYd055c0aptQxoQIhzXy5TJy4aPaFNeW5SDpygEavjbYvW8r6QUOkgxRKqiTSo92tjfpQY2kt7af0HYcDZEWBP2nsq4qO8OtWY3kNT5fQ1oNLeHWE/H8rnXk5JRkIJl/v6ebOzY1Sl6HFFuYa13XKPu7qenMudDAqUkPM9l2nX9q5I14Q6JuwFLC+nrv3oi6do6orV89Duzh5kcLyHgwix8ctZMyFlorvCMPrGR0gQM+eolz/mtWTx3RCqxk0aF8xhjWrMq/RYeK/EZYE/6oEdYwkpsoEZBFTYmXGdb13gx3qHvlSTbXeGP6E9JGyhRg0mjubT5FdUoO/z7Jxrf3wK3P9V0GcxZONbRQmDGGufc2MO7Bkdypr4jbNWqoFkeIsKnMWp5LOg0cGKDfYb8/eozWKQsYsjCF4Z111Bs2oIKBYvtlrram9B9hg+WNdNzwkudwJEM4I2xr7UU6p8/gqZKVbDdMi8P1NVpT4lPtXfxunI0XH0ym8f1u/sqn7Js9km/p5lv/jahQjbjVQPW1h/nZ4zmMt12nujw8woeqPpbSrSPs0FksX6Y2mVwfdWiidIDI6vJgDx1XckmbMpjWirV874O6ewSesoFpU1w7sc6PDtCSkssPffJF42YPR6ryceTls6lGrU/du8BN+cwOx3zVcrZTxvMbi9hUU2QoOZA7xQY3/IPqYIXtYSZ/+z5PaAS9TuM9Oa7pbLiEBf76/qdkazvDpxJ2dFUQyvOw/n9Ich+fCGg/5Yyh0fOTT3w2I5TXFv2sE8qMpAsCkURgJH90j64Bv+tG0uwA1G3dlHgAnBeTdzkC7gMSg0DbaHIdkkhsTGRKnNj9K61LMARkSpxgHSrNSWwEhLCJ3b/SugRDQAibYB0qzUlsBISwid2/0roEQ0AIm2AdKs1JbASEsIndv9K6BENACJtgHSrNSWwEhLCJ3b/SugRDIMyTTkpYbS4juMHJ0grfZ18VMH4PAPDVSUrf9XlCNsHgk+YIAtFFwDRhx/+0kLk/uUHDRScjJgZx0k1WPE/puMhd+FOEtEHgkihBoC8ImJsST8hhLicpDTaquq2On5JOkrOB9zyP1LlUE/nJI8wyyqH0xUspIwgIAhoC5kbYzyoo/aw3xFJR2lnOa40GdYnx5LhFxYcondNoy8T05q6kCQJxioC5ETZk41IZkqTE7txiMEpUvHAunDrJDSWLlSLKxCEhlAyCgAkEzI2wJipyZTFIw5RW0K7U/+PxBSam2ysZBYHoImARYdvpdEL6nFw4VRowffaMvNFtm1gTBBIOAYumxO20q7cwOBs4Z1zrTrBrPwE1GeMSDkJpkCAQPQQsIiw0ftSAMymdx2bq61XXppPz4rnA32uj1z6xJAgkFALmFCf8D0QYILhxqpQKfQT1yyevmzQAJUFBwAIEzBHWAkNShSAgCPQfAcumxP13RWoQBASBUAgIYUMhJOmCQAwhIISNoc4QVwSBUAgIYUMhJOmCQAwhIISNoc4QVwSBUAgIYUMhJOmCQAwhIISNoc4QVwSBUAgIYUMhJOmCQAwhIISNoc4QVwSBUAgIYUMhFFZ6ATsq91OcFVYh6zKv3EHlP4rJtK5GqSnGEEh4wq7e/Qo1Nd5/pWsi1QOZFP9jGeOuHGNzTaRshKh3zwHqcLD+LwUhMkpyvCIQ5lniEKqJCgX9AQBnAwfKThskY6IP0bySzRRN7+CtrB28FmHzBX+pZFlqHS//fDO1wWxl/oKXXsjA1l3Pq796g8s+eeys+O9VOGx6pJO6V7fyuqGiRX96mcfH6Onqeo13ntjJEWOUFlaj/DKGf/gyTxYbKgjIJxHxiIDpB9hDqibiVZto+ArSkwcaDjvZaUncPrsv4mQlq5gFY6H5UDCyuslIPXUt4Pi3QFwW/WkVjv85xrO/Oq4lPlT0Ii+8sJabtV5CHvnteh9yagT+719wJYD8eznw4QLWT82lgFr2BpqTmDhGwNyU2IRqYurMx7j/2gFKB3hUHYi+KFjmYFB3HQf2BFp/qOgXPHR5N8/+6g1uBiZrMYqMz/7WRVYVcfmDJroZxcQVPRQAjvyfa0osi7FBstQWH6OZcSzYLKvZIPDEdZS5ETakaiK0f1BGWSxAseY5avJGeT2ZvpoafU3ZVU/J0n24qGFn26HVTDXMBG6ffY3Hi5q8Zec/zTsbMxjsiXHy4bZiNlZ5IoBMRqbCnc9OBJ0KXy7ZygZjdkvCdlZkjoKWYz6jrrfqvXx6ZRnjhtohqFfenBKKLwTMETae2rRrB1m7lMMuQqZf8iOh1hY3WduOkrW02tU6jZyreafEnd9N1pvl6yjU6gNtTbxxM9swktZOig1av7ZuvfjQTDs2rlH7ui/wPutYtRY2jMq+OaGp7Q5MGKntGFvnmb8VuY82AuamxNH2KtL21ixiarKTD/e7yarsVe3jz2edDE6byjxg9ZMZDO6q5y03WVWW40X7+LArifRMNXK5P1kjGa6HrbiuWMsLjiS66wJHT23q/MR6nn1iPa9etvPC2y+yordZry0Fg6dWeCd1DDACdydhNdA7uOYztXX3RHIKD+id0nbLPX3WI1zXwUNHeyNqrtPqvetfaMVa/uvxUXTX7WZDiWFqHqTWyyVvUNedhBqNe/x0d9B7LT2WlIQYReAuJmwPPdLVwRc9JOnRt9uu6kGgiY5uGH5fb0OdIXtPwTDI6qpiFP9mg/abwSlpHzoI2q/LCrYnvOM0/u4k7K7P+IJRPLU729tt85/mN9OT+KLKtSn12ifXwL4Q40GLeSVPMzX5GpXGjSlqud4OgyY82vcTRmGTFRb9aQFjucZFv3Wuq0EFPKx+ZvpUftTxdnBihMwdnNAPQwRps0c1Ub2ew/0uHd9sThoOlnE66u/W6W3TSXmYTWnNQu/0F/jCsMGktcF/x5lrwQ9hZBWzf52D1kOLec7/px03GX0xUXf64Qj/QxPGnPrhiCB5Wo75/BRkLIU6orgUDi5+Tn6H9QEm/m/METb+2xnxFoQ86RRxD3QDctJJRyIRr3fnlDgCPbn31y/HwDle/TzzQTmWGIE+joUqhbCW9UItm39+kOaxCwbwaZ1cHNTx8q9l7WpZt8ZYRTIljrEOEXcEgd4QkBG2N3QkTRCIMQSEsDHWIeKOINAbAkLY3tCRNEEgxhAQwsZYh4g7gkBvCAhhe0NH0gSBGENACBtjHSLuCAK9ISCE7Q0dSYsiAgOsOMlA2zcHdeI9wO7Xbtsvj5Jm0FFprVjI1fN+mWLk9gcLy8mYMhjnRy/RcPTEwHvlf5a66ShZqwzPEFvmofeE1nO6OohldZutyK2FtW4HBTUWnMHWznOP04w3BztjbtYtv3xhErZ31cTUmcvJnZjkMeG8eICyD9o999EOKAKkjW3m0pa1dEfbuI+9lYzelAsx/GXh4666UYobeaMCH4gIyNj/iIK/rI+JE1q1xU9iV+qX/yimqSf1S1PNLWDH0nFYSVTdrGnChlRNnJBD7sRuTpaW0ahq157wySWno5SKz3Rz0bw+ypAH1Wi1c4DJar7N3x/N49xR8/kjmXNepj1AcSMi9npVnIyIxV4r3XuwjgXrHOSuhFr/J696LWlI1FRImjnW1/KGqvyD5tawJlQTUUJtpRUusiorbY186YQRY8f725R7QcCDQG+Kk55M0QzUbObYFRg3LzbfoGBuhDWhmhhNTHu19chOpuW41g5avikbmDbFrVvYWUf99hf5HtcUdZDPWtFv2qrVA5f2djCywIE+0Q+2BtbXnh6/dDv3bSXdUJacowzPcefS86hbP5+D2YBHuff5DYwZ4rHiu9YNw19vDf4h/2eEMyiqyaBIy+arGKneqPCUUZ0mYH1rQpUyhOLkkJ+/QvbI61RfsJE9TVfO+o7mQ+uov+DyXcvzUBcfF2+lxd0cT7n//Wc6F7xI3qRuPr4+kskP/RD+7+c+4WqVxw+GvZ82s2ypSw8r1gTszBHWr0GmboeO5/4kuFGvTZBNFbEk0/m1nNM2lVx/4Kmf92cDZxxpBXBpy0JtWq0RM2cnHee9a2LXptZtWvYu5NbXfi34+kUatqg4vy8Dv2x4fHbn80/XydpxgHPb3fMs7ctgA+lg2KAK7W9A1T4R1RRmuTaVNIXItCaDLKw3o0bWofWUZOmSsS6i1+zGvSllQpVSq86E4uSPHiR70udUF2/ViDWmcCeTF/yGlguBRPN66Bf60YNMTj5D+aFUFi19kMkjP6f6EExfOpIxk/CQ31OquYM7pDFSvSOpD5tgmbPTGNR9KSJ6WuamxJ6WmA2MJ2dZOknOBs4NyPrVrJ+h8ikiesn5/Te3fAvct5WRY6G1Ii+QrL45+3f3SB5jhtympcawKPr6RZo+uk3Sg1n8wFN7CH89+foRmP80i+14pHRcNVVTWK4kdSawWkWYUKXUyplSnGzlY8Mo+G3Xd31w/juaz+5zl/uO5mNmyD6IFMNEzYzRzM37qaysZC07WdyvTauerUWAsO6d5Bh4t07PzbYy5TbfWSab2Jtft/jOfwRX2YekGAjbW3kr05x0BFWqS2HUfN2OCVVKKxUndbOWXe/Q0RxeZWqXefHixexkbcTeImgxYe82sobXoRHJ3dnB9xGpuC+V9kBSY1U+qpQWKU4a67ciPC6FQbRyvQ/TYWW+9v1L3ImQJrSFhI0nsjbxXSckpeq7Jq61o76tYbrPv66hvXMwYwp24nnxXNDCLnvD01YGTQ0Zef4TWhlH2i8N5e/bin3KYFpPq020KH6qPqShK4mpa57WBNddlrMpzRvF7bNHXC8eM6FK6SrXf8XJzm+7gGSGTHLV6NqE+mG/ACl4eBxc+TQmBezMbToFqCYmMbewkLmArpqYOvMRRiiYktLJLVRbId6PnscbM9ChE9wqzyK1IJdp6kADah36Ei2zNhBeV5/g1vYTfKdOU20y/IBq3AHWag+0hyGP/2ksz27ylQOc+7tat+7hqtq82uT11+XzQJzaamLj0te09xJ5d5DB971EavMKTZWypmahhoD6L0CVEuj3757HtvLx6J1MXrqTcUvRdoGrz9nIdhPYY9x0wC0Reyg2ZXZEIsZ0R0rGSCEQO4qTYIkvmuxtCsciIDNr4ZQ4Ut0p9SY6ArGhOAlql3fZ2GYO9neHV9tMi8zrPoWwic6GuGhfDChOUkDuVKh7xYKD/+zluVfqYOp67WeeHYath/52h0yJ+4uglBcEooiAjLBRBFtMCQL9RUAI218EpbwgEEUEEo6wY8canlaPIpBiShCIBgIJR9hogCY2BIGBQkAIO1DIi11BoA8ICGH7AJoUEQQGCgEh7EAhL3bDR0CdIKrcQUHYJZXIWyVW/h4atgsWFTB3ltgiY1JNJBFYyaJDRTiS3Ta6zrB76XIi8uSfn5pisDPC1re0gB3rHPDhy304lF/L5uO5VC7dT3Hzk2zu41M41rcp/BrDPDjRi2piwAMCMBCqiWqX+MqVK+EjkUAlhpdcYFXaxcgR1oOVS2mC8nUU7vJERiCgRsj1ONoPsrgf775VRw/XT23lYATO+Eag0UGrND3ChlRNbDtNWelpr5EBV030uiKhOEdgZS4O2x3qdvfvCZra4mPkVi5jweZM9hbHmlqTuT4yt4Y1o5rob8+tmmhLSfVPkXtBIAwEMimep55PPWbBVFaJhd9h0NTcPqyDw3A5glnNjbB9UU2cMI30JCcNnw+ckLgVuGnTy+mGx9P914bzy3h+4wy8Yobd1G2bxJEql3XP9LRqGKvy9AfmffOonAF2aOJwVjb1nkb4rVGBzrMlbC8y6Dx58vYWeIlnavIZ48nib8eT0M+ACdVEJVa+MYPB/pZ8FBhdQm3Nx4ONrqoti2gvv8gDeaoPuqkzhg39oJtQahBrp/ZdYE2vZ6Cu5ghr1ju/dax6cP10m9nCsZcvY/dVltgVuUZ7COjjpZus35aPZrt7DacRb6PS4PSSluQZrJp/ht1Z2domkFbvmjLqq9ybQmuqWTX9Gw5nTTIQ1GjJTda2N9my1C3Zqtku4vkSwiCti6z3nC1hi5vomr811eDz5WC03ZewGdXEbEo3ZsDZ18gqagIMZYyvA9GE2u5wqUd9JRuOvGEcziphuNp0y5tI3bYSWFPEA5krOVLl94WmHn1b53AJrMXh5pO5KbHZPtPWsaWUlqp/J2FOIYU/jVMh8fllzLZDS7mBeH44ZDw5gyFdZ6gybLi0Fu2grsum/bF4szdx2LBje7Mt2ItD7Exc4y3hE1qTjyO5m7r9brKqxKrlvHW2myFpj2JW2mZ4ySLGdJ3hLcOo3Fp0hBZ6se3jiMkbM6qJ8+/lxzhpqFVkVZ8mqi85Yei9BukZQNNXcmfp4dJ59k3PF13n2R3Bv1z9yg6/L9MvJj5urR1hfdrcSMUpO4Vz7Iyn0ftGAJ88sX7TTXtQdUCD323Xg/50MmSoPv015O0puCubLVSzKe8qm/JcmVrKR/M3wxcBfEOre5rtU03yMH6sJG58Inu5UaN9zdWADLoId0BCnyN6EGRLTuEB4HjVLW5uzCA90w5VrhE2Oy0J2m5x3GhT0wg2+5VkLNh7uPXr+Nx0iiBhITXFBs4vie9VbO8d31NqZ5s+cvSUwy9ekVYn6BoXeZ/Bn7R+ZdRt1zfcDBLdY5T/GrzHjBFK8FFNhMHTV1OjT0191q5u+1ZPYUNOsSPUbouqtXZKbHRq6Cwem5iE81pjfBK26gRfdNlwbKwmw9guQ7j+kyaw5/OMYSo7vOQ5HMlNvG+YdhqKmAvu+tjz2gmtgHZvZ8nul7zl55fx1HQbLfo62JvSY6i19iKdyTN4qiS0BIIuil35jz68Y8aEauK8kpk80KXeHrCOLP2fce3qaYVLCnXcw+Gfb/JUYQjoqvwn9C8JQ1o8BM2NsH6bSRComsiEHArnaLqJ7nY7aTgYz5tOeziydA+tauOp5ipL9N40jlBBprJqLea7u6sX7PkauEPs3gHWR1w28LcstN3dTTX5nop8ps0Bu9X61NewI121nO2oXe0iNtW43pjjqiw8nwPeq5P3CjVqKu8ZIUOrJh4v2kf2odWGd/fozbrGW1k7XHKpWpR+SmkBxVl7+/nTTiaPThjEnc9OEJ8TYgjzpJMOauxe5aRT7PaN0TPP+3mW6u/nUak97BQjJ5107CI3JdYtyFUQMIvA/KmkJ8PtNv9NMV2kbRn7N/dxd3flDtZbJrJmtkHW55MR1npMpUZTCPi/2tJVqNcHCfqs9+saoVOOL+Y5v59lTbkaQ5mEsDHUGeKKIBAKAZkSh0JI0gWBGEJACBtDnSGuCAKhEBDChkJI0gWBGEJACBtDnSGuCAKhEBDChkJI0gWBGEJACBtDnSGuCAKhEBDChkJI0gWBGEJACBtDnSGuCAKhEDB3+N9TSy+qiZ48gOdhgRucLK2I02dhjQ2ScDAEHip6kRccSXTX7WZDSeDjhIv+9DKPe7RonNS9upXX4/XUfTAABiDO9AirVBMLC+10XnSGcDOVWfPTwRkqX4hqJDl2Ecj8BS+9/TIraKInQVkXWa/xzhPrefaJ9bxaB44XXmRFH48Cxy4Y0fXMHGHDUE1MnfkY6TTwXn0wGZToNk6sRQIBOytW2Ln86no2lHwT3EDmL8gcA1fe2ckRd47LJW9Q152E42fzgpeRWFMImJsSm1VNdD+0fuPUadrJMeVAbGZ6lHuf38AY6qjf/iLfe5xcyehNuQz66CUajp5wx7rivCImt2nZm8etr93J920lvWAC7Xvz+C7rKGnut2E6ferwGAga0J6XHXqEw+SzRCnPNL3pE96yyqD1FLQGKyObeP1XW3uvcGwKNq5R+7o320NFv8ChiU8O4yHgsjdJQmEgYI6wJiscPyWdpK9OUvYZMMFkoZjMdoJbp/MYkzOBIffhJd8j/8FwmrnkIasi9n/QsWUh+gNhtl8eJa1gJ99tWYt3jjGYMQVHUSQ99/cT8MhOpuWs5d4LJ7x1h8LBns9spXb4ST6b8vJZ0vQmW8onsylvsqaI4ZVD7bkil/L9oKAZmg9Z9yTLQz9OgW59umxnxX+vwkE979TZedyRgvrOEsIG7YaQkdYRVk2bf6I2mRpDGo2LDOfLaZm1gdRJj3Lra9doaktTgtYHDEQ8wa3t+kjralW30uMM8k5pnxH1/Ce05uTyQzUs6yNxSFDcsjNrlOJEE4fVqLqmOmQpY4ba4iejq7SwYi3/9fgorryznmdfB7VJJZ/+IWARYceTM2cESoc4QegKnKDz87WMmZKH7egJuu/bysixarrr+0DlDxaWkzHFXwo7UET3zjdGYu/h6hbfevrXjbFV+vLNDnBk8EJmPa8+sdN3NO3u6HGjKrZaEZveWEPYCXY0NSelQzzHt6FzCwuZ62zgQJla18bX5/ujx2idkkvKI/D9sAkkdX5Gk3FEfGQnGVOgZe9C79RWm+7GZjujNSXmSgfdjKK99g0DWe3MfCiJ7st1hrjYxCmWvbKGsME2pTRRNuL8d9g93PxoARlpW/kuZTCtp40bUMG6dSWjc8YBgSNssNzRjovalLj2DWp/lsHjj69l0euunWLXptM13gnye220cYhne+YI6zkIoTc1iGqinpRg1+8vfIazwMGYzjrqz/s1zr3OVRtKrvMBt2mpqMOZk+KXMbFufQ9EAI5V/NfbQHc9r/7KNaoe+e16UAcn3n6Zx7Xmq99kvT/zJBYi0WuNSMRED2uxJAj0GwFzByf6bUYqEAQEASsQEMJagaLUIQhECQEhbJSAFjOCgBUICGGtQFHqEASihIAQNkpAixlBwAoEhLBWoCh1CAJRQkAIGyWgxYwgYAUCQlgrUJQ6BIEoISCEjRLQYkYQsAIBIawVKEodgkCUEBDCRgloMSMIWIGAucP/Hku9qCYGPCDgKqSeka1QChTySSAE3CoSmuSLalZwRUTfhwSC50kgUKLSFNOEVaqJSlGi4aKTERN78s1Jw8EyTrf1lC7xiYDAoj+twvE/x3j2V8e15mhypy+s5Wat92kcr2qi/njdi7zwglKcEKnT/vwNmJsSh6Ga2B9npGx8IKAenXv2ty6yKo8vf9CkPbA+cYXbf1FNjFhHmhthgz2gHjGXYqHi2FJNhKeZs3kGnDuIc9Iyxv3IjVHrGcpL98UCYL4+iGqiLx4W3pkjrGmDSaQvKyRdz//VSUrfjUeVpxhUTQSGTVsG59ZSfgyY9BsWLZ3BnAX7OKXuTXwiJRHz0Ey7j6ypqCaa6Iw+ZrGOsG2nKSs97XVD24SaS+FPiU/SxpxqIty5fNBLzgvt3Fn6oBdvE6GISMSsWOt+XccbHtFwjyuimuiBwqqAdYT196jtNO9dvJ/ciXbG0xiHaoqimujfpQH3bkL6v1tHVBMDkLIsInKEBVKHJIHzy7hTS9TRFdVEHYkg1x7IquUU1cQggFkTFTnCath6qtcAAAy3SURBVMLi4HpthzXORr8WUU0MinlvZFUFRDUxKGxWRJojbMChiCCqiZqsqaZO7PZLvQUg/oXFRTXR/8/MzorMUVqkTVdL9GTxKiOKaqIHFEsDoppoKZxSmSAQWQTMHZyIrA9SuyAgCJhEQAhrEijJJgjEAgJC2FjoBfFBEDCJgBDWJFCSTRCIBQSEsLHQC+KDIGASASGsSaAkmyAQCwgIYWOhF8QHQcAkAkJYk0BJNkEgFhAQwsZCL4gPgoBJBISwJoGSbIJALCAghI2FXhAfBAGTCJg7/O+prBfVRD2P34MCzosHKPugXU+VqyAgCPQDAdOENaOamDpzObkToeFgqSgn9qNTpKgg0BMC5qbEZlQTh87iMY2sInPaE9gSLwj0FwFzI6wJ1cTUB+8nyfkljaJJ3N8+kfKCQI8ImCNsj8W9CZocTFc7qT8tJPcnerwIi+tIyFUQsAIBywirOfOTudhPlVL6rss1bU27LIf20oo4FGGzAl6pQxCwFgFza1izNr866fMenfYPznODEdgnmK1A8gkCgkBvCFhG2PZOJySnkmq0NjQVz/uSjPESFgQEgT4hYB1h1WialM40w2g6fko6Sc4Gzsnb6/rUOVJIEPBHwJwIm99hCGMlPq+T9M/nbOBA2emo6hKPHTuWK1euGF2UsCCQMAiYI2wcNVcIG0edJa6GjYBlU+KwLUsBQUAQCBsBIWzYkEkBQWDgEBDCDhz2YlkQCBsBIWzYkEkBQWDgEBDCDhz2YlkQCBsBIWzYkEkBQWDgEBDCDhz2YlkQCBsBIWzYkEkBQWDgEBDCDhz2YlkQCBsBIWzYkEmBAUMgq5j9lTsoGDAHQhvO3Lyfyr9EzkNrn4cN3R7JETEEVrLoUBGOZLeBrjPsXrqc1kjYW/McNXmut7Cr6r8oX0fhrkgYMtZZwI51DvjwZfYao2MsXFt8jNzKZezf3MSTxbWWexfmWeKeVRNdIm3B/Iuu6oScJYbhJRdYlXYxcoT1dHM2pTULIeKEzaT4H+txtB9k8a9jma5uYNRMYJ2D1kOLeW6PByxLAqZH2FCqiY3vlgaoSrhUFLtpF50nSzrrrq1kZS4O2x3qdscBWVUn1Wzm2LJKls0rJnPPZqwcZ82tYc2oJgb8NY1n2sQknBfPBRA5IKtECAI9IpBJ8bxxcOUYm2t6zBRzCXsP1nHH5iB3pbWumRthTagm+ruVOvMRRnCDk3EuIq5NL6cbdDP814bzy3h+4wyGeADopm7bJI5UuSI809OqYazKs7tz+eZRkQF2aOJwVjb1nnr91qhA59kStheFO+d6iWdq8hnjqdffjiehnwE72w6tZqq+pgZun32Nx4uavPXOf5p3NmYw2BvjCjUdJWtVtTvWTooNmo8HH137jG/Tm2xZtUGzodUx9AiHyWeJ6qKmN33Cej4IA7uaE1xa5SDtvkywcIw1N8L6AxryPjFG14zdV1k1Heq2jWZLlvufcSPHTdZvy73pu8+CY+MFFs03gJQ8g1Xzv2G3u47DTTYca8oYrmdZU82q6d9wWLehXYOQte1Nrx/bzsD0Ip4vCecr3PUHd8/ZEk89u88OY0lNNRm6L5Zc3WRtO0pW1jrXv231MH0175ToX1rZlG7MgLOvufO8xoddiixGsgJZIxnOHTqae3HMBL5PscPT5i3bztBpz/fFzp7P7LYStpQ3gT2fJbzpDk92YxMudrVcb4dBQ/X29uJ/GEkRIaw+up6P59F1fhmz7dBS7h0t/XHNeHIGQ7rOUGXYIW0t2kFdl40HMo1EauKwgeg327r9qwLsTFwTJFpFrcnHkdxN3X7XiKDlqlrOW2e7GZL2qJf4PRTXo4eXLGJM1xneMozKrUVHaOnNtl44nOuaRUxNdvLhfn2UBKr28eezTganTWWeqmv+vfwYJw21+ojbRPUlJwy915Wu2xuXwiA93OM1BL67sn1nIlUn+EJ9Ofh8mnjfg0sTh92jr56lz9iljkSNsVZ9zE2Jw7KWyvhRau36XgKsXbtp/yJE49uuB/3pZEg436y7stlCNZvyrrIpz2WvpXw0fzN8EcA3tLqn2T4eJQ/jxxDUB598+o0ajWqu6neea4snZFWgg2tB/U3hAeB41S1ubswgPdMOVYq0drLTkqDtFseNLjR3cMf0V5KxoDHsP5V1pXUas5gJ9wW79usWTojBesJOmEZ6kpOGz+/uF2B1tukjh5m/BECRVifoGhd5n8GftEHq6vqGm0Gie4zyX4P3mDFCCV0dGL8DB09fTY2+meQ/HVYu1FyndZ2DlHEq3Bef1No/nzGGNSu49gPUF0dYn7Cwy2RkKtz5LMy/gxAOWTwlTmVWxgj46nz8vwxLmzbZcGzseX1X/4lrvfOMYSo7vOQ5HMnG6VWIHgiWvOtjfEY87d7Okt0veXPPL+Op6TZaqswfjmitvUhn8gyeMrHu1U7sVFZS+Y/i8Kd0uz7jC0bx1O5sg79P85vpSXxRtU8bQeeVzOSBrnpK9DWuuno2mrzFoImObhj3sHWnh1x9ZLQROhwOdlptWY+SZrvDpfet/FHH7Ajrr4ZIEnMLC5kLGFUTU2c+5hpdqxpDIxDzOfZwZOkeWndfZUnNVZbo/hq/ZYNMZdUfmO/url6w52vgDrF7B1gfcdnA37LQdnc31eR7KvKZNgfsVutTX8OOdNVytqN2tYvYVFPkqSdcn1fvfoWnjHspea9Qo6bynhGymsIstEMVNepghftjPBF1vGgf2YdWU1STgdETuMZbWTt4TS9ELZuP51K5dAHFWXv78NPOHo5U5ePIy8eDndoFbspntseGiUCY2GXOTmNQ9yVO9GlW0LM/YZ506rmiWEmRk06x0hO9+6GRfmg9JUtdI64rt2F32We0lZNOOpoWT4n1auUqCPQBgflTSU+G223+m2K1bP75QZrHqjO6Vu659sHHkEW8Z56tPpaoTMsIG7IDJENkEHCdQ/bf+DFOmwPsamd0Uzi2+LmYfQBArf3XDz0WsTPPQtiAvwqJEARiFwGZEsdu34hngkAAAkLYAEgkQhCIXQQSbkocu1CLZ4JA/xGQEbb/GEoNgkDUEBDCRg1qMSQI9B8BIWz/MZQaBIGoISCEjRrUYkgQ6D8C1j+t03+f+l+DWwRLPUd558OXI6Je138npQZBIHwEwtwl7lk1UTM9IYfCOSMMXkRXMdFg2BVcuYPKpcOpe+XJPhwaD6hNIgSBAUfA9AgbSjURjaw2Gg6Weh6t08osy6G9tGJgHmbfc4C6eev78SzlgPePOCAI+CBgbg1rQjUxVSll4Stp2njlho8xuREEBIH+IWCOsEo18d3en3Ft/+A8NxjB3OWzSFU+qWdo54wQmdP+9Y+UFgR8EDA9JfYpFfSmkYrSRtQ0OLcwHZTAlmF6HLRIxCOVct16HJpaQXCZzIi7IAYEAQsRMDfCmjKoNqQKmZvcwIHSUg5chPRlhSyfqY23pmqIRKa9v17M4k8fprKyMg6epYwEAlJnIiFgGWE1aVNnAwfKTqPk19o/KOPARSdJEx9j1tCBg6zgL5VUPvwpixcvlp93Bq4bxLJFCFhH2CFJ0NWukVX3rf3zL3HqNwNydSnXNX8q0+EBgV+MWo6AZYRt73TCTx7xGU3HT0knyW/n2PIWSIWCwF2EgLlNJxOqidoUmOXkLitEbTlpHzVFLnVNkfUouQoCgkDfETBH2LbTlJWeDmlFkbb0g5DZJIMgIAj0EQHLpsR9tB/ZYu73ivb6IqXIeiC1CwKWImBuhLXUZBQqMxz+bz60WM4RRwFyMREdBMI8/B8dp8SKICAIBEcgsafEwdsssYJA3CIghI3brhPH70YEhLB3Y69Lm+MWASFs3HadOH43IiCEvRt7XdoctwgIYeO268TxuxEBIezd2OvS5rhFQAgbt10njt+NCIR50ik81UTnxQOUfaCejpWPICAIWIGAacKGr5qoyJ3LcoS0VnSU1CEIKATMTYlDqiamMitDCa6955E4hUYqTt0gadR4lyib4C0ICAL9RsDcCKtUEz/rg632TpxJQzTCysS4D/hJEUHADwFzI6xfocDbdhqvKf2maYz3JKYya75SnLCROoCaTh53JCAIJAAC5kZYEw1VD6+fHFLIXKWcqOV30nDxBkxUAuPyEQQEASsQsIywypnGd0t9X8kxIYd055c0tlnhqtQhCAgCFk2JgwHp3oi61uijpBgsp8QJAoKAOQQiRNhUZi3PJZ0G3pPfYc31hOQSBEwgYE5xIkA10VvzjVOlVKgdZL88cmjCi5GEBAGrEDBHWKusST2CgCDQLwQiNCXul09SWBAQBHpAQAjbAzASLQjEIgJC2FjsFfFJEOgBgf8PDTszRh/2mgQAAAAASUVORK5CYII=;" parent="1" vertex="1">
                    <mxGeometry x="60" y="189" width="236" height="241" as="geometry"/>
                </mxCell>
            </root>
        </mxGraphModel>
    </diagram>
</mxfile>